{"title":"Verliefd op Ibiza (2013) BDRip (Russian)","uid":8912248,"size":2195881625,"categoryP":"video","categoryS":"movies","magnet":"?xt=urn:btih:f3ff46f49e13d76988de3e68f650446f0fd568b0&amp;dn=Verliefd+op+Ibiza+%282013%29+BDRip+%28Russian%29&amp;tr=udp%3A%2F%2Ftracker.openbittorrent.com%3A80&amp;tr=udp%3A%2F%2Fopen.demonii.com%3A1337&amp;tr=udp%3A%2F%2Ftracker.coppersurfer.tk%3A6969&amp;tr=udp%3A%2F%2Fexodus.desync.com%3A6969","seeders":1,"leechers":0,"uploader":"yfjfrj","files":-1,"time":1379052263,"description":"General\nUnique ID                                : 246476369041913537103261003437422194399 (0xB96D9F399160258492BEBF714490AEDF)\nComplete name                            : D:moviesVerliefd.op.Ibiza.2013.L1.HDRip.AVC.2100MB.mkv\nFormat                                   : Matroska\nFormat version                           : Version 4 / Version 2\nFile size                                : 2.05 GiB\nDuration                                 : 1h 56mn\nOverall bit rate                         : 2 509 Kbps\nEncoded date                             : UTC 2013-09-11 03:55:06\nWriting application                      : mkvmerge v6.1.0 ('Old Devil') built on Mar  4 2013 09:10:42\nWriting library                          : libebml v1.3.0 + libmatroska v1.4.0\n\nVideo\nID                                       : 1\nFormat                                   : AVC\nFormat/Info                              : Advanced Video Codec\nFormat profile                           : &lt;a class=&quot;__cf_email__&quot; href=&quot;/cdn-cgi/l/email-protection&quot; data-cfemail=&quot;440c2d232c0408706a75&quot;&gt;[email&amp;#160;protected]&lt;/a&gt;&lt;script cf-hash='f9e31' type=&quot;text/javascript&quot;&gt;\n/* &lt;![CDATA[ */!function(){try{var t=&quot;currentScript&quot;in document?document.currentScript:function(){for(var t=document.getElementsByTagName(&quot;script&quot;),e=t.length;e--;)if(t[e].getAttribute(&quot;cf-hash&quot;))return t[e]}();if(t&amp;&amp;t.previousSibling){var e,r,n,i,c=t.previousSibling,a=c.getAttribute(&quot;data-cfemail&quot;);if(a){for(e=&quot;&quot;,r=parseInt(a.substr(0,2),16),n=2;a.length-n;n+=2)i=parseInt(a.substr(n,2),16)^r,e+=String.fromCharCode(i);e=document.createTextNode(e),c.parentNode.replaceChild(e,c)}}}catch(u){}}();/* ]]&gt; */&lt;/script&gt;\nFormat settings, CABAC                   : Yes\nFormat settings, ReFrames                : 9 frames\nCodec ID                                 : V_MPEG4/ISO/AVC\nDuration                                 : 1h 56mn\nBit rate                                 : 2 061 Kbps\nWidth                                    : 1 024 pixels\nHeight                                   : 552 pixels\nDisplay aspect ratio                     : 1.85:1\nFrame rate mode                          : Constant\nFrame rate                               : 24.000 fps\nColor space                              : YUV\nChroma subsampling                       : 4:2:0\nBit depth                                : 8 bits\nScan type                                : Progressive\nBits/(Pixel*Frame)                       : 0.152\nStream size                              : 1.64 GiB (80%)\nWriting library                          : x264 core 130 r2273 b3065e6\nEncoding settings                        : cabac=1 // deblock=1:-3:-3 / analyse=0x3:0x133 / me=umh / subme=11 / psy=1 / psy_rd=1.00:0.20 // me_range=32 / chroma_me=1 / trellis=2 / 8x8dct=1 / cqm=0 / deadzone=21,11 / fast_pskip=0 / chroma_qp_offset=-3 / threads=12 / lookahead_threads=2 / sliced_threads=0 / nr=0 / decimate=0 / interlaced=0 / bluray_compat=0 / constrained_intra=0 / bframes=8 / b_pyramid=2 / b_adapt=2 / b_bias=0 / direct=3 / weightb=1 / open_gop=0 / weightp=2 / keyint=250 / keyint_min=23 / scenecut=40 / intra_refresh=0 / rc_lookahead=60 / rc=2pass / mbtree=1 / bitrate=2061 / ratetol=1.0 / qcomp=0.60 / qpmin=0 / qpmax=69 / qpstep=4 / cplxblur=20.0 / qblur=0.5 / ip_ratio=1.40 / aq=1:1.00\nLanguage                                 : Dutch\nDefault                                  : Yes\nForced                                   : No\n\nAudio\nID                                       : 2\nFormat                                   : AC-3\nFormat/Info                              : Audio Coding 3\nMode extension                           : CM (complete main)\nFormat settings, Endianness              : Big\nCodec ID                                 : A_AC3\nDuration                                 : 1h 56mn\nBit rate mode                            : Constant\nBit rate                                 : 448 Kbps\nChannel(s)                               : 6 channels\nChannel positions                        : Front: L C R, Side: L R, LFE\nSampling rate                            : 48.0 KHz\nBit depth                                : 16 bits\nCompression mode                         : Lossy\nStream size                              : 374 MiB (18%)\nLanguage                                 : Russian\nDefault                                  : Yes\nForced                                   : No\n\nMenu\n00:00:00.000                             : en:00:00:00.000\n00:09:54.500                             : en:00:09:54.500\n00:19:52.083                             : en:00:19:52.083\n00:27:44.458                             : en:00:27:44.458\n00:41:05.708                             : en:00:41:05.708\n00:47:16.417                             : en:00:47:16.417\n00:57:10.875                             : en:00:57:10.875\n01:05:25.417                             : en:01:05:25.417\n01:14:36.458                             : en:01:14:36.458\n01:23:51.292                             : en:01:23:51.292\n01:33:20.750                             : en:01:33:20.750\n01:45:39.208                             : en:01:45:39.208\n","torrent":{"xt":"urn:btih:f3ff46f49e13d76988de3e68f650446f0fd568b0","amp;dn":"Verliefd+op+Ibiza+%282013%29+BDRip+%28Russian%29","amp;tr":["udp%3A%2F%2Ftracker.openbittorrent.com%3A80","udp%3A%2F%2Fopen.demonii.com%3A1337","udp%3A%2F%2Ftracker.coppersurfer.tk%3A6969","udp%3A%2F%2Fexodus.desync.com%3A6969"],"infoHash":"f3ff46f49e13d76988de3e68f650446f0fd568b0","infoHashBuffer":{"type":"Buffer","data":[243,255,70,244,158,19,215,105,136,222,62,104,246,80,68,111,15,213,104,176]},"announce":[],"urlList":[]}}